<?xml version="1.0" standalone="no"?>
<!DOCTYPE svg PUBLIC "-//W3C//DTD SVG 20010904//EN"
 "http://www.w3.org/TR/2001/REC-SVG-20010904/DTD/svg10.dtd">
<svg version="1.0" xmlns="http://www.w3.org/2000/svg"
 width="165.000000pt" height="165.000000pt" viewBox="0 0 165.000000 165.000000"
 preserveAspectRatio="xMidYMid meet">
<metadata>
Created by potrace 1.11, written by Peter Selinger 2001-2013
</metadata>
<g transform="translate(0.000000,165.000000) scale(0.100000,-0.100000)"
fill="#000000" stroke="none">
<path d="M81 1632 c-19 -9 -44 -30 -55 -45 -21 -28 -21 -36 -21 -762 0 -726 0
-734 21 -762 48 -66 15 -63 799 -63 784 0 751 -3 799 63 21 28 21 36 21 762 0
726 0 734 -21 762 -48 66 -15 63 -799 63 -656 0 -713 -1 -744 -18z m534 -342
c26 0 26 -20 0 -46 -30 -30 -26 -36 40 -56 90 -28 154 -139 162 -283 5 -95 16
-127 53 -159 31 -26 185 -80 200 -71 6 3 10 39 10 78 0 86 20 136 76 189 40
38 105 71 159 81 22 5 17 0 -20 -18 -27 -13 -45 -24 -38 -24 16 -1 11 -26 -10
-49 -9 -10 -17 -23 -17 -29 0 -6 -12 -21 -27 -33 l-28 -22 28 16 c26 16 36 10
18 -9 -14 -16 -23 -65 -11 -65 6 0 13 8 16 18 10 31 38 82 45 82 4 0 14 3 23
6 20 8 20 -16 2 -68 l-13 -38 27 20 c30 21 60 26 60 10 0 -5 -12 -17 -27 -25
-26 -15 -26 -16 -4 -11 22 5 22 3 -9 -30 -41 -42 -47 -64 -15 -64 12 0 37 -3
54 -6 26 -5 31 -11 31 -35 0 -15 -6 -31 -12 -35 -9 -6 -5 -10 12 -14 38 -9 37
-38 -2 -54 -40 -17 -78 -52 -78 -71 0 -8 -8 -20 -18 -27 -10 -7 -21 -21 -25
-30 -3 -10 -16 -18 -27 -18 -11 0 -20 -4 -20 -10 0 -5 -18 -10 -40 -10 -41 0
-53 -13 -23 -24 15 -6 15 -8 3 -17 -11 -8 -12 -12 -2 -16 16 -6 15 -23 -2 -23
-8 0 -17 -7 -20 -16 -3 -9 -13 -14 -20 -11 -8 3 -20 -1 -26 -9 -7 -8 -22 -14
-34 -14 -37 0 -111 -27 -108 -40 1 -6 -4 -31 -13 -56 -8 -25 -15 -58 -15 -74
0 -26 -4 -30 -29 -30 -17 0 -29 5 -28 13 2 63 -26 81 -41 24 -6 -24 -14 -33
-34 -35 -25 -3 -26 -2 -17 35 13 55 11 63 -11 63 -11 0 -20 7 -20 15 0 9 -6
12 -15 9 -8 -4 -17 1 -21 9 -3 9 -12 13 -21 10 -10 -4 -14 0 -11 13 2 10 -3
19 -9 20 -7 1 -17 2 -22 3 -5 0 -9 14 -9 30 1 39 -34 93 -82 125 -22 14 -40
31 -40 36 0 5 -26 26 -57 47 -96 64 -110 108 -80 248 13 60 28 96 61 145 46
68 86 142 86 159 0 5 -9 7 -19 4 -31 -8 -58 41 -44 78 11 29 11 29 -23 29 -26
0 -33 3 -27 13 4 6 8 27 9 46 0 19 8 39 16 45 8 6 20 20 26 31 10 17 11 18 12
3 0 -10 4 -18 9 -18 4 0 7 12 4 28 -3 26 -3 26 8 5 16 -31 29 -29 29 5 1 26 1
26 15 8 15 -20 15 -20 16 0 0 10 3 13 6 7 7 -19 23 -16 24 5 1 16 2 16 6 0 2
-10 11 -18 18 -18z"/>
</g>
</svg>
