<svg height="210" viewBox="0 0 150 210" width="150" xmlns="http://www.w3.org/2000/svg"><g fill="none" fill-rule="evenodd"><path d="m73.665 165.879 21.866 12.155 40.495-4.32 9.16-17.355-44.183-25.359-19.81 25.36z" fill="#fff"/><path d="m98.884 167.422h.115c-.023-.009-.043-.015-.115 0zm5.498-2.45c-.006-.111.023-.242-.142-.288-.113-.028-.258-.02-.376-.06-.026-.008-.442 1.524-.474 1.661-.021.108.062.165.088.272.024.097.016.196.013.299 0 .076.014.148-.003.227-.007.022-.033.058-.036.082 0 .04.018.047.05.086.043.054.07.115.107.171h.646c.03-.07.059-.138.076-.21.048-.173-.009-.36.04-.523.03-.093.065-.153.064-.252-.006-.122-.023-.247-.005-.365.036-.2.082-.383.067-.587-.012-.17-.097-.337-.115-.513zm-104.382-164.972v208l76.368-40.551.058-.012 22.362-.015c.05-.045.1-.094.173-.13.267-.117.494-.138.79-.161.217-.018.368-.127.595-.112.215.01.398.149.63.116.213-.03.358-.088.582-.096.11-.005.274.022.37-.027.113-.054.07-.132.106-.222.083-.221.318-.382.367-.621.13-.621.264-1.23.334-1.856.012-.102.018-.336-.19-.34-.094 0-.112.093-.19.108-.091.013-.094-.027-.163-.057-.178-.089-.203-.096-.221-.264-.018-.143-.097-.278-.09-.421-.157.162-.1.339-.447.233-.167-.05-.136-.077-.15-.206-.014-.097-.06-.188-.083-.283-.094-.012-.108.05-.18.075-.064.025-.119.016-.194.03-.112.022-.254.12-.291.209-.232-.198.107-.48.14-.667.014-.08.005-.238-.112-.246-.16-.015-.229.186-.338.23-.02-.14-.03-.307.105-.415-.174.013-.484.129-.613-.033-.11-.143.12-.35.17-.474.068-.168-.028-.318-.112-.473-.263-.483-.457-1.072-.873-1.49-.29-.298-.76-.44-1.075-.722-.376-.336-.575-.788-1.006-1.083-.418-.289-.924-.443-1.312-.767-.814-.675-1.303-1.637-1.282-2.564.015-.556.219-1.099.367-1.634.213-.776.17-1.62.622-2.347.394-.629.89-1.222 1.282-1.855.266-.428.458-.877.663-1.329.143-.32.52-.789.51-1.134a.893.893 0 0 1 -.81.137c-.54-.153-.497-.444-.603-.83-.036-.127-.095-.249-.1-.377-.008-.21.2-.336.225-.529.01-.09-.015-.171.064-.251.05-.058.214-.12.078-.192-.11-.052-.26.034-.368.06a1.033 1.033 0 0 1 -.352.028c-.105-.008-.2-.054-.305-.069a.41.41 0 0 0 -.432.235c-.075-.126.012-.306.1-.423.146-.192.37-.29.625-.378-.425-.141-.432-.528-.35-.83.036-.145.091-.29.161-.426.072-.137.262-.247.263-.403.003-.095.03-.174.175-.156-.004.06-.013.095.06.132.015.01.168.051.16.03-.024-.1-.05-.192.005-.287.053-.096.116-.17.122-.282 0-.054-.02-.24.124-.208.044.004.193.747.375.639.125-.077-.11-.385-.107-.482.007-.138-.027-.368.063-.49.12-.17.222.229.245.285.048.146.101.345.261.442.136.081.16-.12.175-.182.02-.089.097-1.012.296-.946.127.049.072.228.08.313.004.048.148.564.145.564.101-.04.1-.241.109-.316.01-.077-.027-.283.04-.34.105-.082.221.065.254.13.021.05.05.258.145.22.075-.026.108-.183.118-.24.03-.11.008-.24.089-.339.183-.039.31.28.32.369.002.013-.007.282-.023.287.199-.042.323-.158.535-.063.142.069.226.208.17.333-.025.066-.101.107-.125.177-.022.064-.016.135-.036.204-.08.248-.426.367-.692.478-.078.03-.272.07-.262.152.01.049.18.123.232.15.126.058.202.13.308.2.441.273 1.102.282 1.585.55.453.255.813.585 1.105.953.41.524.65 1.105.89 1.687.26.63.506 1.274.543 1.936.045.802-.075 1.592.103 2.391.123.534.344 1.059.77 1.494.712.727 1.687.883 2.727 1.204.112.033 1.14.495 1.138.496.127-.059.263-.156.414-.151.036 0 .073-.523.07-.562-.009-.226-.08-.449-.091-.676-.037-.71-.036-1.384.25-2.07.176-.432.335-.885.634-1.28.15-.198.358-.342.57-.501.168-.13.241-.268.367-.42.293-.365.719-.627 1.176-.853.365-.186.788-.403 1.205-.507.259-.065.528-.1.79-.17.243-.067.436-.078.686-.017-.224.037-.404.134-.594.224-.164.082-.357.113-.487.23-.112.11-.188.205-.386.199-.11 0-.13-.036-.224.011-.052.032-.105.113-.166.152-.09.055-.42.158-.436.217.288.009.59-.036.873-.024-.136.072-.682.25-.718.373.072-.046.156-.041.233-.064.086-.023.156-.081.243-.1-.033.243-.175.435-.403.609-.19.147-.417.221-.438.444-.024.225.014.364-.136.565-.272.339-.876.464-1.058.864.323-.101.45-.289.688-.475a9.14 9.14 0 0 1 .648-.463c0 .09-.098.175-.12.263-.022.074-.01.168-.023.242-.039.187-.24.35-.468.424 0 .17.018.348-.014.507-.028.17-.139.373-.122.554.161-.073.318-.062.475-.122.006-.17-.086-.416-.024-.574.04-.1.198-.217.263-.31.089-.122.157-.246.232-.373.136-.23.233-.479.366-.705.066.01.134.046.2.057.114.017.087-.006.18-.05a1.21 1.21 0 0 1 .519-.098.503.503 0 0 0 -.064.247c.004.098.082.165.095.253.017.126-.172.275-.258.39-.114.157-.014.246-.014.411 0 .187-.08.308-.178.479-.07.123-.318.446-.258.572.131-.205.388-.41.595-.57.133-.108.284-.191.41-.3.182-.16.242-.196.53-.19-.039.065-.103.155-.124.214.136-.024.235-.192.377-.195.03.136.133.252.052.37-.058.09-.197.19-.3.253-.151.085-.334.127-.474.228-.098.072-.228.176-.275.276.183.034.41-.1.556-.172.16-.082.34-.146.521-.214-.05.11-.19.206-.287.297-.071.068-.152.123-.22.192-.114.13-.198.27-.34.39s-.319.222-.444.356c-.056.053-.3.291-.3.35-.005.093.086.04.122.114.033.068.022.153.018.227-.13.06-.27.256-.338.272.294-.055.53-.104.833-.068.212.025.412.003.622.072.116.042.165.087.294.08.129-.004.194-.074.347-.056.294.039.336.195.294.406-.019.113-.28.473.075.431a.96.96 0 0 1 -.15.446c-.09.15-.248.202-.361.322.34.1.688.066.91.34.147.191.144.58-.046.753-.229.2-.72.138-.994.336-.108.079-.15.23-.307.314-.2.117-.462.15-.647.243.22.29-.114.391-.124.659-.009.136.09.17-.036.32-.099.112-.232.178-.4.239.004.06.043.124.088.175-.205.02-.403.001-.52.159.295.268-.035.516-.39.632-.197.06-.621.043-.754.159.14.027.356.049.484.09-.335.19-.573.256-.987.22-.312-.03-.823-.038-1.125.054.237.064.492.156.692.276.261.16.154.275.087.495-.162-.032-.19-.172-.39-.14-.005.091 0 .188.013.273.187.065.63.25.39.452-.1.081-.326.052-.451.114-.177.08.014.407-.086.441-.139.045-.276.102-.433.094-.172-.007-.319-.086-.486-.088-.04.177-.19.305-.319.452-.082.094-.082.128-.239.133a1.855 1.855 0 0 1 -.5-.04c-.107-.021-.28-.08-.385-.045-.069.02-.052.06-.088.1a.584.584 0 0 1 -.23.151c-.308.12-.634.15-.964.195-.148.018-.222.026-.313.133-.08.103-.057.11.02.22.299.457.073.83-.398 1.126.027.166.18.273.14.45-.09.367-.25.7-.26 1.069-.01.296-.042.593-.052.892-.002.12-.025.26-.012.374.012.134.112.254.12.39.006.12-.02.234.031.328h29.678l-51.606 4.083 66.269 36.495v-208z" fill="#001C78"/><path d="m93.661 95.88c-3.737 8.73-6.788 10.467-7.853 10.156-1.066-.314-1.454-4.444 1.53-10.182 3.808-7.332 8.327-7.302 8.327-7.302.032 1.448-.725 4.415-2.004 7.328m11.322 17.486c-2.762.14-6.53.703-10.802 2.185l.347-1.192c2.76-10.041 4.107-20.278 4.295-21.964.281-2.509.584-4.813-1.21-5.162 0 0 1.98-3.186-.91-4.157-2.892-.972-10.772 3.392-14.197 12.095-3.429 8.703-1.676 14.126 1.08 14.798 2.762.671 7.054-3.251 10.113-10.368.069-.077-1.441 8.446-3.824 16.949-4.79 2.506-9.782 5.918-14.62 10.55-10.72 10.527-14.702 17.73-11.36 20.208 3.342 2.479 15.95-1.19 25.533-19.368.817-1.504 1.573-3.182 2.276-4.957.24-.613-.352-2.038-3.745-.298a57.488 57.488 0 0 1 -1.294 3.444c-5.152 12.383-15.835 22.182-20.524 19.725-2.539-1.624 1.215-9.142 10.758-17.798 2.944-2.667 7.784-5.91 9.878-7.055 4.682-2.667 12.703-4.336 17.835-4.738 7.864-.352 10.301 2.986 10.42 3.073 1.121-.1 1.822-2.191 1.256-3.18-.99-1.662-5.209-3.494-11.305-2.79m40.403-43.337c-1.464-.302-4.663.135-8.214 2.396-3.548 2.261-5.235 5.111-5.807 8.464-.589 3.439 1.562 6.347 2.692 7.787.918 1.177 3.356 3.515 3.927 5.29.573 1.773-.214 4.18-2.48 6.017-1.964 1.592-4.367 1.456-5.304.904-1.076-.634-1.26-1.507-1.37-1.597-.564 1.577-.795 4.54 2.638 5.337 3.427.791 8.232-2.198 9.51-5.867 1.282-3.674-.369-6.055-2.738-8.573-2.376-2.518-3.653-4.87-3.15-7.519 1.276-6.692 8.623-7.922 9.986-8.348 1.755-.545 1.9-2.233 1.9-2.233.138-.722-.32-1.796-1.59-2.058m-28.788 22.351c2.828-9.577 7.351-14.346 8.23-13.81.878.538-.005 4.348-1.801 8.343-2.19 5.15-5.505 6.894-6.975 7.434.161-.62.337-1.268.546-1.967m.403 11.965c-1.325-.337-2.853-1.974-1.17-9.104 3.186-.321 7.958-3.145 10.722-7.726 2.034-3.378 3.253-8.896-.724-11.52-5.392-3.323-12.18 6.006-14.434 17.29-1.466 8.618 1.273 12.059 3.938 13.18 2.807 1.187 6.392-.38 9.097-3.542 3.173-3.713 6.153-9.476 6.006-11.017-7.2 11.542-11.95 12.816-13.435 12.439m-49.67 7.976c-1.064-.31-2.017-3.275.742-10.285 3.82-8.974 7.86-8.422 7.86-8.422s-.352 3.969-1.758 8.857c-2.47 7.888-5.775 10.168-6.843 9.85m-16.45-6.316c2.08-8.678 4.604-11.607 5.763-11.405 1.16.203.964 3.635-.538 7.497-1.667 5.186-4.646 6.922-5.925 7.45.162-1.074.39-2.249.7-3.542m26.298 1.978c1.649-8.948 2.426-14.711.062-15.033 0 0 .992-2.965-1.944-3.309-2.937-.347-7.992 2.612-11.726 11.653a23.922 23.922 0 0 0 -1.64 5.919c-5.143 9.563-7.93 11.547-9.768 11.296-1.434-.2-2.734-2.548-2.11-7.963 3.179-.289 8.853-5.362 10.114-10.482 1.198-4.872-.298-7.527-3.11-7.675-5.583.111-9.677 8.845-10.9 15.2-.973 5.056-.919 13.327 5.21 13.477 7.064.172 10.315-11.522 10.315-11.522l.08-.458c-.118 3.33.816 6.127 3.508 6.641 3.139.328 6.684-3.838 7.942-6.958.114.095-2.104 12.82-6.176 19.1-2.938 5.14-7.882 7.364-10.442 6.882.063.05 1.344.993 3.507.625 2.064-.348 4.32-1.04 6.735-3.583 4.456-4.683 7.922-11.062 10.343-23.81m27.641.579c3.537.945 6.174-4.13 6.174-4.13-1.023 1.05-2.477 1.942-3.622 1.969-1.135.027-1.82-.515-1.888-2.895-.181-7.028 4.105-22.139 7.37-29.876 3.27-7.732 2.374-8.387 1.715-8.593-2.911-.911-9.656 15.415-11.965 26.047-2.309 10.635-1.319 16.533 2.216 17.478m-75.716-24.889c6.858-5.36 13.38-6.822 16.46-7.122 3.086-.302 4.217 1.458 4.217 1.458s1.532-1.33 1.791-2.734c.266-1.407-.465-4.093-4.514-4.782-4.856-1.003-12.813 1.253-21.5 7.323-8.683 6.066-13.556 14.523-13.301 20.508.249 5.985 4.92 9.608 11.662 13.93 6.4 4.107 8.506 6.7 8.191 11.023-.346 4.762-3.556 9.016-8.642 11.878-4.132 2.324-9.168 2.866-12.367 1.896-4.11-1.243-4.753-5.25-4.745-5.148-.72 1.742-.459 4.575 1.776 6.721 4.568 4.28 12.718 2.692 16.506.851 4.559-2.218 9.225-6.517 10.718-12.574 1.224-4.748.105-8.48-2.698-11.558-1.485-1.724-3.633-3.248-5.571-4.577-4.3-2.948-8.345-6.28-8.505-11.287-.17-5.1 3.896-10.628 10.522-15.806" fill="#fff"/><path d="m61.357 83.974c-.444-.455-1.166-.831-2.172-.83-.317 0-.662.036-1.034.117-3.932.688-8.885 3.613-13.994 7.526l.15-.691c.135-.6.258-1.124.361-1.55.925-3.887 1.314-6.4.249-6.536-1.61-.202-3.87 2.74-5.72 9.998l-.474 2.076c-.116.094-.228.19-.339.289-2.147 1.934-8.794 8.565-9.823 9.717-.373.418-.558.851-.561 1.251a.946.946 0 0 0 .219.633.803.803 0 0 0 .607.275h.009c.391-.005.776-.226 1.152-.633.981-1.073 5.2-5.546 8.072-8.209-2.28 14.462-1.52 19.157-.863 22.774.66 3.628 2.709 6.038 5.16 5.803 1.819-.174 2.946-1.798 2.937-1.906-.725.285-1.585.712-2.78.155-1.74-.812-1.833-4.71-1.578-12.33.177-5.24 1.437-12.473 2.508-17.748l.352-.26-.214-.29.224.282c5.342-4.314 10.791-6.629 12.622-7.257 2.486-.853 3.887-.994 4.573-.994.375.001.474.034.616.041.003.002.006.002.009.002l.365.028.01-.38v-.032c-.007-.37-.197-.858-.643-1.32" fill="#fff"/><path d="m99 169.01h.116c-.023-.01-.044-.016-.116 0" fill="#ec008c"/></g></svg>
